<svg width="705" height="316" viewBox="0 0 705 316" fill="none" xmlns="http://www.w3.org/2000/svg">
                <g opacity="0.1">
                <path opacity="0.1" d="M308.386 193.875C312.429 193.875 315.706 189.754 315.706 184.671C315.706 179.588 312.429 175.468 308.386 175.468C304.343 175.468 301.066 179.588 301.066 184.671C301.066 189.754 304.343 193.875 308.386 193.875Z" fill="#3F3D56"/>
                <path opacity="0.1" d="M314.182 145.295C315.203 143.583 315.731 141.641 315.713 139.668C315.713 134.584 312.432 130.464 308.386 130.464C304.34 130.464 301.04 134.597 301.04 139.68C301.021 141.653 301.55 143.595 302.571 145.307C301.567 147.025 301.04 148.961 301.04 150.931C301.04 152.9 301.567 154.837 302.571 156.555C301.567 158.273 301.04 160.209 301.04 162.179C301.04 164.148 301.567 166.085 302.571 167.803C301.548 169.514 301.02 171.456 301.04 173.43C301.04 178.507 304.321 182.633 308.36 182.633C312.4 182.633 315.687 178.507 315.687 173.43C315.707 171.456 315.179 169.514 314.156 167.803C315.159 166.085 315.686 164.148 315.686 162.179C315.686 160.209 315.159 158.273 314.156 156.555C315.159 154.837 315.686 152.9 315.686 150.931C315.686 148.961 315.159 147.025 314.156 145.307L314.182 145.295Z" fill="#3F3D56"/>
                <path opacity="0.1" d="M308.386 137.636C312.429 137.636 315.706 133.515 315.706 128.432C315.706 123.35 312.429 119.229 308.386 119.229C304.343 119.229 301.066 123.35 301.066 128.432C301.066 133.515 304.343 137.636 308.386 137.636Z" fill="#3F3D56"/>
                <path opacity="0.1" d="M308.386 126.388C312.429 126.388 315.706 122.268 315.706 117.185C315.706 112.102 312.429 107.981 308.386 107.981C304.343 107.981 301.066 112.102 301.066 117.185C301.066 122.268 304.343 126.388 308.386 126.388Z" fill="#3F3D56"/>
                </g>
                <g opacity="0.1">
                <path opacity="0.1" d="M393.848 171.867C396.871 171.867 399.322 168.789 399.322 164.992C399.322 161.196 396.871 158.118 393.848 158.118C390.825 158.118 388.374 161.196 388.374 164.992C388.374 168.789 390.825 171.867 393.848 171.867Z" fill="#3F3D56"/>
                </g>
                <g opacity="0.1">
                <path opacity="0.1" d="M39.6177 169.168C43.6605 169.168 46.9378 165.047 46.9378 159.964C46.9378 154.882 43.6605 150.761 39.6177 150.761C35.5748 150.761 32.2975 154.882 32.2975 159.964C32.2975 165.047 35.5748 169.168 39.6177 169.168Z" fill="#3F3D56"/>
                </g>
                <path opacity="0.1" d="M352.5 271.064C547.18 271.064 705 268.614 705 265.592C705 262.57 547.18 260.12 352.5 260.12C157.82 260.12 0 262.57 0 265.592C0 268.614 157.82 271.064 352.5 271.064Z" fill="#6C63FF"/>
                <path opacity="0.1" d="M352.5 316C547.18 316 705 313.55 705 310.527C705 307.505 547.18 305.055 352.5 305.055C157.82 305.055 0 307.505 0 310.527C0 313.55 157.82 316 352.5 316Z" fill="#6C63FF"/>
                <path opacity="0.1" d="M352.5 177.284C547.18 177.284 705 174.834 705 171.812C705 168.789 547.18 166.339 352.5 166.339C157.82 166.339 0 168.789 0 171.812C0 174.834 157.82 177.284 352.5 177.284Z" fill="#6C63FF"/>
                <path opacity="0.1" d="M352.5 224.171C547.18 224.171 705 221.721 705 218.699C705 215.676 547.18 213.226 352.5 213.226C157.82 213.226 0 215.676 0 218.699C0 221.721 157.82 224.171 352.5 224.171Z" fill="#6C63FF"/>
                <path opacity="0.1" d="M520.253 29.1731C517.956 28.7567 515.583 29.0062 513.434 29.8896C512.145 30.4414 510.749 30.7266 509.337 30.7266C507.925 30.7266 506.529 30.4414 505.239 29.8896C503.714 29.2466 502.06 28.9295 500.394 28.9604C498.728 28.9914 497.089 29.3695 495.591 30.0688C494.737 30.5044 493.785 30.7333 492.818 30.7358C488.907 30.7358 485.659 26.9557 484.983 21.9711C485.753 21.4202 486.408 20.735 486.913 19.9513C489.203 16.4059 492.747 14.1267 496.736 14.1267C500.724 14.1267 504.223 16.375 506.513 19.8834C507.195 20.9434 508.151 21.8157 509.289 22.4154C510.426 23.0151 511.706 23.3216 513.003 23.3053H513.106C516.252 23.2744 518.947 25.671 520.253 29.1731Z" fill="#6C63FF"/>
                <path opacity="0.1" d="M532.159 13.5152L525.843 17.3572L529.702 10.6616C528.615 9.83081 527.27 9.37215 525.881 9.3583H525.778C525.347 9.36393 524.917 9.33293 524.492 9.26565L522.318 10.5689L523.237 8.96299C521.718 8.45783 520.404 7.50174 519.487 6.23288L515.628 8.56768L518.046 4.3428C515.808 1.76093 512.785 0.179688 509.466 0.179688C505.477 0.179688 501.933 2.45272 499.637 5.99816C498.96 7.05829 498.003 7.92755 496.863 8.51769C495.723 9.10784 494.441 9.39785 493.146 9.3583H492.934C488.534 9.3583 484.971 14.1453 484.971 20.0502C484.971 25.9552 488.534 30.7483 492.934 30.7483C493.9 30.7421 494.851 30.5133 495.706 30.0812C497.205 29.3802 498.843 29.0005 500.51 28.9685C502.176 28.9365 503.829 29.253 505.355 29.8959C506.644 30.4515 508.04 30.7388 509.453 30.7388C510.865 30.7388 512.262 30.4515 513.55 29.8959C515.064 29.2674 516.701 28.9581 518.35 28.989C519.999 29.0199 521.622 29.3903 523.109 30.075C523.955 30.5001 524.894 30.7246 525.849 30.7298C530.249 30.7298 533.812 25.9366 533.812 20.0317C533.839 17.7608 533.271 15.52 532.159 13.5152Z" fill="#6C63FF"/>
                <path opacity="0.1" d="M251.677 25.8318C250.068 25.5398 248.404 25.7139 246.898 26.3321C245.996 26.719 245.02 26.9189 244.032 26.9189C243.045 26.9189 242.068 26.719 241.167 26.3321C240.099 25.8821 238.943 25.6605 237.778 25.6829C236.613 25.7053 235.466 25.9711 234.419 26.4618C233.823 26.7603 233.161 26.9191 232.489 26.925C229.755 26.925 227.478 24.2814 227.002 20.7915C227.548 20.4074 228.013 19.9274 228.372 19.377C229.974 16.9063 232.457 15.3003 235.249 15.3003C238.04 15.3003 240.491 16.8754 242.093 19.3276C242.571 20.0699 243.241 20.6807 244.038 21.1007C244.835 21.5206 245.732 21.7354 246.641 21.7242H246.711C248.873 21.7118 250.757 23.3919 251.677 25.8318Z" fill="#6C63FF"/>
                <path opacity="0.1" d="M260.007 14.8805L255.588 17.5735L258.271 12.8854C257.512 12.3026 256.572 11.9807 255.601 11.9713H255.524C255.218 11.9766 254.912 11.9538 254.611 11.9034L253.112 12.8175L253.755 11.6934C252.693 11.3385 251.774 10.6706 251.131 9.7848L248.448 11.4154L250.146 8.46302C249.433 7.57875 248.524 6.85787 247.485 6.35257C246.446 5.84728 245.303 5.57024 244.138 5.5415C241.347 5.5415 238.864 7.13505 237.262 9.61803C236.787 10.3604 236.117 10.9691 235.318 11.3824C234.519 11.7956 233.621 11.9988 232.714 11.9713H232.566C229.485 11.9713 226.989 15.319 226.989 19.4573C226.989 23.5956 229.485 26.9433 232.566 26.9433C233.24 26.9383 233.902 26.7773 234.496 26.4739C235.544 25.9859 236.689 25.7222 237.853 25.7009C239.017 25.6795 240.171 25.9011 241.237 26.3504C242.145 26.7476 243.128 26.958 244.126 26.968C245.107 26.9664 246.078 26.7686 246.975 26.3874C248.035 25.9472 249.18 25.7304 250.334 25.7517C251.488 25.7731 252.624 26.0319 253.665 26.511C254.26 26.8105 254.922 26.9673 255.595 26.968C258.669 26.968 261.165 23.6141 261.165 19.482C261.191 17.8788 260.793 16.2954 260.007 14.8805V14.8805Z" fill="#6C63FF"/>
                <path opacity="0.1" d="M173.413 74.2629C175.021 73.9714 176.682 74.1456 178.186 74.7632C179.089 75.1503 180.066 75.3503 181.055 75.3503C182.044 75.3503 183.021 75.1503 183.924 74.7632C184.991 74.3139 186.147 74.0922 187.312 74.1136C188.477 74.1349 189.623 74.3987 190.672 74.8868C191.266 75.1909 191.928 75.3519 192.601 75.3562C195.335 75.3562 197.612 72.7064 198.082 69.2166C197.537 68.8338 197.074 68.3536 196.718 67.8021C195.11 65.3314 192.627 63.7317 189.842 63.7317C187.057 63.7317 184.599 65.3006 182.991 67.7589C182.514 68.5003 181.844 69.1105 181.049 69.5304C180.253 69.9503 179.358 70.1656 178.45 70.1554H178.379C176.211 70.1678 174.32 71.8417 173.413 74.2629Z" fill="#6C63FF"/>
                <path opacity="0.1" d="M165.077 63.3302L169.502 66.0233L166.814 61.3413C167.574 60.7566 168.516 60.4326 169.489 60.4209H169.56C169.868 60.4252 170.176 60.4045 170.48 60.3591L171.979 61.2671L171.336 60.1491C172.396 59.7935 173.312 59.1256 173.954 58.2405L176.636 59.8712L174.964 56.9125C175.677 56.029 176.586 55.3091 177.625 54.8048C178.665 54.3005 179.808 54.0246 180.971 53.9971C183.757 53.9971 186.246 55.5907 187.848 58.0737C188.322 58.8152 188.992 59.4233 189.789 59.8365C190.586 60.2498 191.483 60.4535 192.389 60.4271H192.543C195.618 60.4271 198.114 63.7811 198.114 67.9134C198.114 72.0456 195.618 75.3996 192.543 75.3996C191.871 75.3967 191.209 75.2378 190.614 74.9363C189.566 74.4457 188.42 74.1799 187.255 74.1575C186.09 74.1351 184.933 74.3566 183.866 74.8066C182.962 75.2073 181.98 75.4179 180.984 75.4243C180.001 75.4235 179.028 75.2258 178.128 74.8437C177.07 74.4036 175.926 74.1869 174.773 74.2082C173.62 74.2295 172.485 74.4883 171.445 74.9672C170.85 75.2668 170.187 75.4236 169.515 75.4243C166.434 75.4243 163.938 72.0765 163.938 67.9381C163.908 66.3346 164.3 64.7498 165.077 63.3302Z" fill="#6C63FF"/>
                <path d="M427.316 263.819C428.995 260.83 427.091 257.173 424.904 254.511C422.717 251.849 420.041 249.076 420.099 245.685C420.183 240.811 425.573 237.927 429.876 235.345C433.072 233.421 436.019 231.14 438.657 228.55C439.76 227.554 440.672 226.379 441.352 225.079C442.246 223.177 442.22 221.002 442.162 218.902C441.978 211.947 441.62 204.997 441.088 198.05" stroke="#3F3D56" stroke-width="4" stroke-miterlimit="10"/>
                <path d="M449.277 197.704C449.215 196.43 448.82 195.191 448.128 194.102C447.437 193.013 446.472 192.109 445.321 191.472L443.545 194.838L443.603 190.761C441.993 190.306 440.274 190.354 438.694 190.898C437.114 191.442 435.755 192.454 434.813 193.788C433.871 195.122 433.395 196.709 433.453 198.319C433.511 199.93 434.101 201.481 435.137 202.749C436.173 204.017 437.602 204.936 439.218 205.374C440.833 205.811 442.552 205.744 444.125 205.183C445.698 204.621 447.045 203.594 447.971 202.25C448.897 200.906 449.354 199.314 449.277 197.704Z" fill="#6C63FF"/>
                <path d="M435.151 249.168C434.354 250.655 433.07 251.848 431.496 252.563C429.922 253.278 428.147 253.475 426.444 253.123C424.742 252.771 423.208 251.891 422.08 250.618C420.951 249.344 420.291 247.75 420.202 246.08C420.143 245.027 420.318 243.974 420.716 242.991C421.3 241.558 422.321 240.329 423.647 239.465C424.973 238.601 426.54 238.143 428.143 238.151C429.745 238.16 431.307 238.635 432.622 239.513C433.938 240.392 434.945 241.632 435.511 243.072L430.565 246.938L436.007 245.703C436.013 246.907 435.719 248.095 435.151 249.168Z" fill="#6C63FF"/>
                <path d="M431.24 234.406C429.297 234.494 427.388 233.892 425.877 232.715C424.367 231.537 423.361 229.867 423.05 228.023C422.74 226.179 423.148 224.29 424.196 222.716C425.244 221.142 426.858 219.993 428.731 219.489L428.686 222.621L430.481 219.211C432.579 219.117 434.631 219.827 436.184 221.186C437.737 222.544 438.665 224.439 438.763 226.454C438.861 228.469 438.121 230.438 436.707 231.93C435.293 233.421 433.319 234.312 431.221 234.406H431.24Z" fill="#6C63FF"/>
                <path d="M450.467 222.12C449.239 222.181 448.013 221.967 446.887 221.494C445.761 221.022 444.764 220.303 443.977 219.397C443.189 218.49 442.633 217.42 442.351 216.271C442.069 215.122 442.069 213.926 442.352 212.777C442.635 211.628 443.193 210.558 443.981 209.653C444.769 208.747 445.766 208.029 446.893 207.557C448.02 207.086 449.246 206.872 450.473 206.934C451.701 206.996 452.897 207.331 453.966 207.914L452.57 211.62L455.42 208.915C456.572 209.929 457.386 211.249 457.759 212.707C458.131 214.165 458.046 215.697 457.514 217.109C456.981 218.52 456.025 219.749 454.767 220.64C453.508 221.531 452.003 222.044 450.441 222.114L450.467 222.12Z" fill="#6C63FF"/>
                <path opacity="0.1" d="M448.209 199.73C446.382 199.921 444.607 200.465 442.767 200.576C440.927 200.687 438.908 200.261 437.763 198.896C437.224 198.1 436.734 197.276 436.296 196.425C435.796 195.676 435.111 195.056 434.302 194.622C433.79 195.585 433.497 196.643 433.445 197.724C433.392 198.804 433.58 199.883 433.997 200.889C434.413 201.894 435.048 202.803 435.859 203.553C436.671 204.304 437.639 204.88 438.701 205.243C439.763 205.605 440.893 205.746 442.015 205.656C443.138 205.566 444.228 205.246 445.212 204.719C446.196 204.192 447.052 203.469 447.721 202.599C448.391 201.729 448.86 200.732 449.097 199.674C448.807 199.68 448.505 199.699 448.209 199.73Z" fill="black"/>
                <path opacity="0.1" d="M450.467 222.121C449.101 222.183 447.743 221.904 446.523 221.313C445.302 220.721 444.263 219.836 443.504 218.744C442.746 217.652 442.295 216.39 442.195 215.081C442.095 213.772 442.35 212.461 442.934 211.274C443.562 211.682 444.102 212.202 444.523 212.806C444.996 213.672 445.52 214.511 446.093 215.32C447.328 216.71 449.437 217.173 451.348 217.08C453.258 216.988 455.105 216.463 457.009 216.308C457.272 216.308 457.536 216.271 457.806 216.265C457.412 217.875 456.483 219.317 455.158 220.374C453.834 221.43 452.187 222.044 450.467 222.121Z" fill="black"/>
                <path opacity="0.1" d="M431.24 234.406C429.889 234.467 428.544 234.194 427.333 233.614C426.123 233.034 425.088 232.166 424.326 231.093C423.564 230.019 423.101 228.777 422.982 227.483C422.862 226.189 423.09 224.887 423.643 223.702C424.296 224.114 424.865 224.638 425.322 225.246C425.841 226.133 426.414 226.989 427.04 227.809C428.371 229.236 430.622 229.743 432.642 229.662C434.662 229.582 436.502 229.162 438.431 229.045C437.951 230.539 437.003 231.856 435.717 232.815C434.43 233.774 432.867 234.33 431.24 234.406Z" fill="black"/>
                <path opacity="0.1" d="M435.151 249.168C434.354 250.655 433.07 251.848 431.496 252.563C429.922 253.278 428.147 253.475 426.444 253.123C424.742 252.771 423.208 251.891 422.08 250.618C420.951 249.345 420.291 247.75 420.202 246.08C420.143 245.027 420.318 243.974 420.716 242.992C421.369 243.403 421.954 243.905 422.453 244.48C423.206 245.357 423.701 246.333 424.576 247.179C426.191 248.705 428.809 249.335 431.131 249.391C432.474 249.395 433.817 249.32 435.151 249.168Z" fill="black"/>
                <path d="M34.9348 219.347C36.6137 216.358 34.7096 212.701 32.5226 210.039C30.3356 207.377 27.6596 204.591 27.7175 201.213C27.8012 196.339 33.1916 193.455 37.4949 190.873C40.6907 188.949 43.638 186.668 46.2753 184.078C47.3782 183.082 48.2904 181.907 48.9705 180.607C49.8646 178.705 49.8389 176.531 49.781 174.431C49.5923 167.476 49.2342 160.525 48.7067 153.578" stroke="#3F3D56" stroke-width="4" stroke-miterlimit="10"/>
                <path d="M56.8953 153.232C56.8332 151.958 56.4383 150.719 55.747 149.63C55.0557 148.541 54.0902 147.636 52.9394 147L51.164 150.366L51.2219 146.289C49.6118 145.834 47.8927 145.882 46.3128 146.426C44.7329 146.97 43.3738 147.982 42.4318 149.316C41.4898 150.65 41.0135 152.236 41.0718 153.847C41.1301 155.458 41.7198 157.009 42.756 158.277C43.7921 159.545 45.221 160.464 46.8364 160.901C48.4519 161.339 50.1702 161.272 51.7436 160.711C53.3169 160.149 54.6637 159.122 55.5897 157.778C56.5157 156.434 56.9729 154.842 56.8953 153.232Z" fill="#6C63FF"/>
                <path d="M42.7696 204.696C41.973 206.183 40.6884 207.376 39.1145 208.091C37.5405 208.805 35.7651 209.002 34.0629 208.651C32.3608 208.299 30.8267 207.418 29.6983 206.145C28.5698 204.872 27.9098 203.277 27.8205 201.608C27.7613 200.555 27.9367 199.502 28.3351 198.519C28.9183 197.086 29.9401 195.857 31.2658 194.993C32.5916 194.128 34.1589 193.671 35.7612 193.679C37.3634 193.688 38.9253 194.163 40.2408 195.041C41.5562 195.92 42.5635 197.16 43.1298 198.6L38.1832 202.466L43.6251 201.231C43.6313 202.435 43.338 203.623 42.7696 204.696Z" fill="#6C63FF"/>
                <path d="M38.8586 189.934C36.9154 190.022 35.0064 189.419 33.4959 188.242C31.9854 187.065 30.9791 185.395 30.6689 183.551C30.3588 181.707 30.7665 179.817 31.8143 178.243C32.8621 176.669 34.4767 175.521 36.35 175.017L36.3049 178.149L38.0996 174.739C39.1386 174.692 40.177 174.843 41.1555 175.181C42.134 175.52 43.0335 176.041 43.8025 176.713C44.5716 177.386 45.1951 178.197 45.6376 179.101C46.0801 180.005 46.3329 180.984 46.3814 181.981C46.43 182.979 46.2734 183.976 45.9207 184.916C45.568 185.855 45.0259 186.719 44.3256 187.457C43.6252 188.196 42.7803 188.795 41.839 189.219C40.8976 189.644 39.8783 189.887 38.8393 189.934H38.8586Z" fill="#6C63FF"/>
                <path d="M58.0853 177.648C56.8576 177.709 55.632 177.495 54.5055 177.022C53.3791 176.549 52.3827 175.831 51.5954 174.925C50.808 174.018 50.2513 172.948 49.9694 171.799C49.6874 170.65 49.6879 169.454 49.9709 168.305C50.2539 167.156 50.8115 166.086 51.5996 165.18C52.3878 164.274 53.3847 163.557 54.5116 163.085C55.6385 162.613 56.8643 162.4 58.0919 162.462C59.3196 162.524 60.5154 162.859 61.5846 163.442L60.1888 167.148L63.0383 164.443C64.1909 165.457 65.0048 166.777 65.3774 168.235C65.75 169.693 65.6647 171.225 65.1323 172.636C64.5998 174.048 63.644 175.277 62.3853 176.168C61.1266 177.058 59.6215 177.572 58.0596 177.642L58.0853 177.648Z" fill="#6C63FF"/>
                <path opacity="0.1" d="M55.8275 155.258C54.0007 155.45 52.2253 155.993 50.3856 156.104C48.5459 156.215 46.5261 155.789 45.3811 154.424C44.8426 153.629 44.3529 152.804 43.9145 151.954C43.4145 151.204 42.7295 150.584 41.9205 150.15C41.4082 151.114 41.116 152.171 41.0633 153.252C41.0107 154.333 41.1989 155.412 41.6153 156.417C42.0317 157.422 42.6668 158.331 43.478 159.082C44.2893 159.832 45.2581 160.408 46.3197 160.771C47.3813 161.133 48.5112 161.274 49.634 161.184C50.7569 161.094 51.8467 160.774 52.8307 160.247C53.8146 159.72 54.6702 158.997 55.34 158.127C56.0099 157.258 56.4787 156.26 56.7152 155.202C56.4257 155.209 56.1234 155.227 55.8275 155.258Z" fill="black"/>
                <path opacity="0.1" d="M58.0853 177.648C56.72 177.711 55.3612 177.432 54.1411 176.841C52.9211 176.249 51.8813 175.364 51.1229 174.272C50.3646 173.18 49.9135 171.918 49.8136 170.609C49.7137 169.3 49.9684 167.989 50.5529 166.802C51.1806 167.209 51.7202 167.73 52.1417 168.334C52.6148 169.2 53.1388 170.039 53.7112 170.848C54.9463 172.238 57.0561 172.701 58.9666 172.608C60.877 172.516 62.7231 171.991 64.6272 171.836C64.8909 171.836 65.1546 171.799 65.4248 171.793C65.0308 173.403 64.1012 174.845 62.7768 175.902C61.4523 176.958 59.8053 177.571 58.0853 177.648Z" fill="black"/>
                <path opacity="0.1" d="M38.8586 189.934C37.5074 189.995 36.1625 189.722 34.9522 189.142C33.7418 188.562 32.7064 187.694 31.9446 186.62C31.1829 185.547 30.7202 184.304 30.6006 183.01C30.4811 181.717 30.7088 180.415 31.2619 179.229C31.9145 179.642 32.4834 180.165 32.9408 180.774C33.4594 181.66 34.033 182.516 34.6582 183.337C35.9898 184.764 38.2411 185.27 40.2609 185.19C42.2807 185.11 44.1204 184.69 46.0501 184.572C45.5699 186.067 44.622 187.383 43.3353 188.343C42.0487 189.302 40.4856 189.857 38.8586 189.934Z" fill="black"/>
                <path opacity="0.1" d="M42.7696 204.696C41.973 206.183 40.6884 207.376 39.1145 208.091C37.5405 208.806 35.7651 209.003 34.0629 208.651C32.3608 208.299 30.8267 207.419 29.6983 206.146C28.5698 204.872 27.9098 203.278 27.8205 201.608C27.7613 200.555 27.9367 199.502 28.3351 198.52C28.9873 198.931 29.5726 199.432 30.0719 200.008C30.8245 200.885 31.3198 201.861 32.1946 202.707C33.8091 204.233 36.4271 204.863 38.7493 204.919C40.0928 204.922 41.4354 204.848 42.7696 204.696Z" fill="black"/>
                <path d="M296.229 168.47C294.55 165.486 296.454 161.83 298.647 159.168C300.841 156.506 303.504 153.732 303.446 150.341C303.369 145.462 297.978 142.583 293.669 140.001C290.474 138.078 287.529 135.798 284.895 133.207C283.786 132.216 282.872 131.042 282.193 129.742C281.305 127.833 281.331 125.665 281.382 123.565C281.575 116.61 281.934 109.66 282.457 102.713" stroke="#3F3D56" stroke-width="4" stroke-miterlimit="10"/>
                <path d="M274.275 102.361C274.335 101.087 274.729 99.8486 275.419 98.7594C276.11 97.6703 277.074 96.7654 278.224 96.1282L280 99.4946L279.948 95.4179C280.794 95.182 281.673 95.0798 282.553 95.1153C284.117 95.1853 285.625 95.699 286.885 96.5917C288.145 97.4843 289.102 98.7156 289.633 100.13C290.164 101.545 290.247 103.078 289.871 104.538C289.494 105.998 288.676 107.317 287.519 108.33C286.361 109.343 284.917 110.004 283.369 110.229C281.82 110.454 280.237 110.233 278.82 109.594C277.402 108.955 276.214 107.926 275.405 106.639C274.596 105.352 274.203 103.863 274.275 102.361Z" fill="#6C63FF"/>
                <path d="M288.394 153.825C289.224 155.377 290.585 156.607 292.247 157.31C293.91 158.013 295.774 158.145 297.527 157.685C299.279 157.225 300.813 156.2 301.872 154.782C302.931 153.365 303.45 151.64 303.342 149.899C303.234 148.158 302.506 146.505 301.279 145.218C300.052 143.931 298.402 143.088 296.606 142.831C294.809 142.573 292.974 142.917 291.41 143.804C289.846 144.692 288.647 146.068 288.014 147.704L292.961 151.57L287.519 150.335C287.515 151.549 287.815 152.746 288.394 153.825Z" fill="#6C63FF"/>
                <path d="M292.305 139.063C294.249 139.153 296.159 138.552 297.671 137.375C299.183 136.198 300.191 134.528 300.502 132.683C300.813 130.838 300.406 128.948 299.357 127.374C298.309 125.799 296.694 124.65 294.82 124.146L294.859 127.278L293.064 123.868C290.966 123.769 288.914 124.474 287.358 125.828C285.801 127.182 284.869 129.075 284.766 131.089C284.721 131.966 284.836 132.844 285.107 133.683C285.582 135.183 286.529 136.506 287.817 137.469C289.106 138.432 290.674 138.989 292.305 139.063Z" fill="#6C63FF"/>
                <path d="M273.085 126.765C274.312 126.825 275.537 126.61 276.663 126.136C277.789 125.663 278.785 124.944 279.572 124.037C280.358 123.131 280.914 122.06 281.195 120.911C281.477 119.762 281.476 118.566 281.192 117.418C280.909 116.27 280.351 115.2 279.563 114.295C278.774 113.389 277.777 112.672 276.651 112.201C275.524 111.729 274.298 111.516 273.071 111.578C271.843 111.64 270.648 111.976 269.579 112.558L270.981 116.264L268.099 113.615C267.331 114.283 266.708 115.091 266.266 115.993C265.824 116.894 265.573 117.87 265.526 118.865C265.488 119.568 265.555 120.274 265.726 120.959C266.129 122.563 267.066 123.997 268.393 125.044C269.721 126.092 271.368 126.696 273.085 126.765Z" fill="#6C63FF"/>
                <path opacity="0.1" d="M275.342 104.387C277.169 104.578 278.945 105.122 280.778 105.233C282.611 105.344 284.637 104.918 285.789 103.553C286.325 102.757 286.813 101.932 287.249 101.082C287.751 100.332 288.438 99.7129 289.249 99.2786C289.763 100.242 290.056 101.301 290.109 102.382C290.162 103.463 289.974 104.543 289.557 105.549C289.141 106.555 288.505 107.464 287.693 108.215C286.882 108.966 285.912 109.543 284.85 109.905C283.787 110.267 282.657 110.408 281.533 110.317C280.41 110.225 279.319 109.905 278.335 109.377C277.351 108.849 276.496 108.125 275.827 107.253C275.157 106.382 274.69 105.384 274.455 104.325C274.744 104.331 275.04 104.356 275.342 104.387Z" fill="black"/>
                <path opacity="0.1" d="M273.085 126.765C274.449 126.825 275.807 126.545 277.026 125.953C278.245 125.361 279.284 124.476 280.042 123.385C280.8 122.294 281.251 121.033 281.352 119.724C281.453 118.416 281.199 117.105 280.617 115.918C279.987 116.326 279.446 116.846 279.022 117.45C278.549 118.316 278.025 119.155 277.452 119.964C276.224 121.354 274.114 121.817 272.203 121.725C270.293 121.632 268.447 121.107 266.543 120.952C266.279 120.952 266.009 120.915 265.745 120.909C266.138 122.519 267.067 123.962 268.392 125.019C269.717 126.076 271.364 126.689 273.085 126.765Z" fill="black"/>
                <path opacity="0.1" d="M292.305 139.063C293.657 139.125 295.003 138.854 296.214 138.274C297.425 137.695 298.462 136.826 299.224 135.753C299.986 134.679 300.448 133.435 300.567 132.14C300.686 130.846 300.457 129.544 299.902 128.358C299.25 128.77 298.683 129.293 298.229 129.903C297.71 130.789 297.137 131.645 296.512 132.466C295.174 133.893 292.929 134.399 290.903 134.319C288.876 134.239 287.043 133.819 285.113 133.701C285.591 135.197 286.538 136.515 287.825 137.475C289.113 138.434 290.677 138.989 292.305 139.063Z" fill="black"/>
                <path opacity="0.1" d="M288.394 153.825C289.323 155.546 290.902 156.861 292.807 157.501C294.713 158.141 296.801 158.058 298.645 157.27C300.489 156.481 301.949 155.046 302.728 153.257C303.507 151.469 303.545 149.463 302.835 147.648C302.18 148.056 301.594 148.558 301.098 149.137C300.345 150.014 299.811 150.99 298.975 151.836C297.354 153.362 294.743 153.992 292.414 154.047C291.071 154.048 289.728 153.974 288.394 153.825Z" fill="black"/>
                <path d="M501.56 169.86C537.071 169.86 565.859 142.217 565.859 108.118C565.859 74.0183 537.071 46.3755 501.56 46.3755C466.048 46.3755 437.261 74.0183 437.261 108.118C437.261 142.217 466.048 169.86 501.56 169.86Z" fill="#3F3D56"/>
                <path d="M529.162 124.041C526.923 121.891 521.539 118.649 518.87 117.438C515.789 116.017 514.656 116.042 512.476 117.555C510.662 118.791 509.485 119.983 507.401 119.544C505.316 119.106 501.187 116.116 497.192 112.293C493.198 108.47 490.097 104.529 489.653 102.497C489.209 100.465 490.432 99.359 491.731 97.6171C493.301 95.5233 493.346 94.4362 491.853 91.4775C490.567 88.9142 487.228 83.7567 484.97 81.5949C482.713 79.4331 482.224 79.9087 480.989 80.3596C479.718 80.8712 478.497 81.4913 477.342 82.2126C475.103 83.6517 473.849 84.85 472.967 86.6536C472.086 88.4572 471.089 91.8049 476.216 100.57C479.998 107.275 484.788 113.408 490.432 118.772C496.037 124.204 502.446 128.812 509.453 132.447C518.574 137.389 522.067 136.407 523.945 135.567C525.823 134.726 527.071 133.534 528.563 131.366C529.316 130.258 529.962 129.085 530.493 127.864C530.918 126.678 531.419 126.197 529.162 124.041Z" fill="#6C63FF"/>
                <path opacity="0.1" d="M501.56 46.3814C488.835 46.3752 476.394 49.9934 465.811 56.7781C455.228 63.5628 446.978 73.2092 442.106 84.4968C437.233 95.7845 435.956 108.206 438.437 120.191C440.918 132.175 447.045 143.184 456.043 151.824C465.041 160.464 476.506 166.348 488.986 168.73C501.467 171.112 514.404 169.886 526.159 165.208C537.914 160.529 547.96 152.607 555.025 142.445C562.091 132.283 565.859 120.336 565.853 108.117C565.844 91.7465 559.068 76.0485 547.012 64.4725C534.957 52.8965 518.609 46.3895 501.56 46.3814ZM501.56 161.651C490.534 161.651 479.755 158.511 470.587 152.629C461.419 146.747 454.273 138.386 450.053 128.604C445.834 118.822 444.73 108.058 446.881 97.6736C449.032 87.2891 454.342 77.7504 462.139 70.2636C469.935 62.7768 479.869 57.6782 490.684 55.6126C501.498 53.547 512.708 54.6072 522.895 58.659C533.082 62.7108 541.789 69.5723 547.915 78.3759C554.04 87.1794 557.31 97.5295 557.31 108.117C557.31 115.148 555.868 122.109 553.066 128.604C550.265 135.099 546.158 141 540.981 145.971C535.804 150.942 529.659 154.886 522.895 157.576C516.131 160.266 508.881 161.651 501.56 161.651Z" fill="black"/>
                <path d="M353.838 263.64C389.349 263.64 418.137 235.997 418.137 201.898C418.137 167.799 389.349 140.156 353.838 140.156C318.327 140.156 289.539 167.799 289.539 201.898C289.539 235.997 318.327 263.64 353.838 263.64Z" fill="#3F3D56"/>
                <path d="M390.407 183.244L371.154 202.052C371.12 202.084 371.093 202.121 371.075 202.162C371.057 202.204 371.047 202.248 371.047 202.293C371.047 202.338 371.057 202.383 371.075 202.424C371.093 202.466 371.12 202.503 371.154 202.534L384.662 216.327C384.986 216.639 385.205 217.037 385.294 217.469C385.383 217.901 385.337 218.349 385.162 218.756C384.987 219.163 384.69 219.511 384.309 219.757C383.929 220.003 383.481 220.135 383.022 220.138C382.405 220.137 381.813 219.901 381.375 219.483L367.938 205.74C367.869 205.675 367.777 205.639 367.681 205.639C367.584 205.639 367.492 205.675 367.423 205.74L364.149 208.915C362.809 210.231 361.208 211.277 359.44 211.991C357.673 212.705 355.775 213.072 353.857 213.072C351.904 213.063 349.971 212.68 348.173 211.947C346.375 211.213 344.748 210.142 343.385 208.797L340.24 205.709C340.171 205.644 340.079 205.608 339.982 205.608C339.886 205.608 339.794 205.644 339.725 205.709L326.32 219.421C326.104 219.629 325.848 219.793 325.566 219.906C325.284 220.018 324.982 220.076 324.676 220.076C324.371 220.076 324.069 220.018 323.787 219.906C323.505 219.793 323.249 219.629 323.033 219.421C322.816 219.215 322.644 218.969 322.526 218.698C322.409 218.427 322.349 218.137 322.349 217.843C322.349 217.55 322.409 217.259 322.526 216.988C322.644 216.718 322.816 216.472 323.033 216.265L336.49 202.503C336.549 202.436 336.582 202.351 336.582 202.262C336.582 202.174 336.549 202.089 336.49 202.022L317.237 183.213C317.188 183.166 317.125 183.133 317.056 183.12C316.987 183.107 316.916 183.113 316.851 183.139C316.786 183.165 316.731 183.209 316.692 183.265C316.653 183.321 316.632 183.387 316.633 183.454V221.089C316.638 222.544 317.242 223.938 318.313 224.966C319.384 225.995 320.836 226.575 322.351 226.58H385.306C386.821 226.575 388.272 225.995 389.344 224.966C390.415 223.938 391.019 222.544 391.024 221.089V183.485C391.027 183.415 391.008 183.346 390.968 183.287C390.929 183.228 390.872 183.182 390.804 183.156C390.736 183.129 390.662 183.124 390.591 183.14C390.52 183.155 390.455 183.192 390.407 183.244Z" fill="#6C63FF"/>
                <path d="M353.838 208.606C355.143 208.618 356.437 208.379 357.644 207.901C358.851 207.424 359.945 206.718 360.862 205.826L388.901 178.42C387.906 177.629 386.656 177.192 385.364 177.185H322.364C321.071 177.189 319.82 177.626 318.826 178.42L346.872 205.826C347.781 206.713 348.865 207.416 350.062 207.893C351.258 208.371 352.542 208.613 353.838 208.606Z" fill="#6C63FF"/>
                <path opacity="0.1" d="M353.027 140.162C340.302 140.156 327.861 143.774 317.278 150.559C306.695 157.344 298.446 166.99 293.573 178.278C288.701 189.565 287.424 201.987 289.905 213.971C292.386 225.956 298.513 236.965 307.511 245.605C316.509 254.245 327.973 260.128 340.454 262.51C352.935 264.893 365.871 263.667 377.626 258.988C389.381 254.309 399.427 246.388 406.493 236.226C413.558 226.063 417.326 214.117 417.32 201.898C417.312 185.527 410.535 169.829 398.48 158.253C386.424 146.677 370.076 140.17 353.027 140.162ZM353.027 255.431C342.001 255.431 331.222 252.292 322.054 246.409C312.886 240.527 305.741 232.166 301.521 222.384C297.301 212.602 296.197 201.839 298.348 191.454C300.5 181.07 305.809 171.531 313.606 164.044C321.403 156.558 331.337 151.459 342.151 149.393C352.966 147.328 364.175 148.388 374.362 152.44C384.549 156.492 393.256 163.353 399.382 172.157C405.508 180.96 408.778 191.31 408.778 201.898C408.778 216.096 402.904 229.712 392.449 239.752C381.994 249.791 367.813 255.431 353.027 255.431Z" fill="black"/>
                <path d="M201.24 217.531C236.752 217.531 265.539 189.888 265.539 155.789C265.539 121.69 236.752 94.0469 201.24 94.0469C165.729 94.0469 136.941 121.69 136.941 155.789C136.941 189.888 165.729 217.531 201.24 217.531Z" fill="#3F3D56"/>
                <path d="M201.24 126.246L175.607 183.034L178 185.332L201.247 175.486L224.494 185.332L226.886 183.034L201.24 126.246Z" fill="#6C63FF"/>
                <path opacity="0.1" d="M201.24 94.0283C188.517 94.0222 176.077 97.6396 165.494 104.423C154.912 111.206 146.662 120.851 141.789 132.137C136.915 143.422 135.637 155.843 138.115 167.826C140.594 179.81 146.717 190.819 155.712 199.46C164.707 208.101 176.168 213.987 188.647 216.373C201.126 218.759 214.061 217.537 225.817 212.863C237.572 208.189 247.62 200.272 254.69 190.114C261.759 179.956 265.533 168.013 265.533 155.795C265.533 139.419 258.76 123.713 246.704 112.13C234.648 100.548 218.295 94.0365 201.24 94.0283ZM201.24 209.298C190.212 209.298 179.432 206.157 170.264 200.273C161.095 194.39 153.949 186.027 149.731 176.243C145.512 166.46 144.41 155.694 146.563 145.309C148.717 134.924 154.03 125.385 161.83 117.9C169.63 110.414 179.567 105.318 190.384 103.256C201.2 101.194 212.411 102.258 222.597 106.315C232.784 110.371 241.488 117.238 247.611 126.045C253.733 134.853 256.997 145.206 256.991 155.795C256.989 169.992 251.114 183.607 240.659 193.645C230.204 203.683 216.025 209.322 201.24 209.322V209.298Z" fill="black"/>
                <g opacity="0.1">
                <path opacity="0.1" d="M488.997 248.6H488.856C489.402 248.701 489.963 248.701 490.509 248.6H490.67C490.115 248.522 489.552 248.522 488.997 248.6Z" fill="black"/>
                <path opacity="0.1" d="M502.268 235.37C501.361 237.328 500.023 247.933 499.785 250.039C500.672 250.262 501.258 250.422 501.258 250.422C501.258 250.422 502.647 237.945 503.663 235.734L502.268 235.37Z" fill="black"/>
                </g>
                <path d="M538.006 216.945C539.685 213.961 537.781 210.298 535.588 207.636C533.394 204.974 530.731 202.207 530.789 198.81C530.866 193.936 536.257 191.058 540.567 188.47C543.761 186.547 546.707 184.266 549.34 181.676C550.447 180.683 551.362 179.51 552.042 178.21C552.93 176.302 552.904 174.134 552.853 172.034C552.664 165.075 552.306 158.124 551.778 151.181" stroke="#3F3D56" stroke-width="4" stroke-miterlimit="10"/>
                <path d="M559.96 150.811C559.899 149.538 559.505 148.301 558.815 147.213C558.125 146.125 557.16 145.221 556.011 144.585L554.235 147.951L554.287 143.874C553.443 143.632 552.562 143.53 551.682 143.572C550.117 143.642 548.61 144.156 547.349 145.049C546.089 145.941 545.133 147.173 544.602 148.588C544.07 150.003 543.988 151.537 544.365 152.997C544.742 154.457 545.561 155.776 546.719 156.789C547.877 157.801 549.322 158.461 550.871 158.686C552.419 158.91 554.002 158.688 555.42 158.048C556.837 157.408 558.025 156.379 558.833 155.091C559.641 153.802 560.034 152.313 559.96 150.811Z" fill="#6C63FF"/>
                <path d="M545.841 202.281C545.01 203.832 543.65 205.062 541.987 205.764C540.324 206.467 538.461 206.599 536.709 206.138C534.957 205.678 533.423 204.653 532.364 203.235C531.306 201.818 530.787 200.094 530.895 198.353C531.002 196.612 531.73 194.959 532.956 193.672C534.183 192.385 535.832 191.542 537.629 191.284C539.425 191.027 541.259 191.37 542.824 192.256C544.388 193.143 545.587 194.519 546.221 196.154L541.274 200.02L546.716 198.785C546.721 200.001 546.421 201.2 545.841 202.281Z" fill="#6C63FF"/>
                <path d="M541.93 187.513C539.986 187.602 538.076 187.002 536.564 185.825C535.052 184.648 534.044 182.978 533.733 181.133C533.422 179.288 533.83 177.398 534.878 175.823C535.926 174.248 537.541 173.1 539.415 172.596L539.376 175.727L541.171 172.324C543.269 172.232 545.32 172.943 546.872 174.301C548.424 175.66 549.351 177.555 549.45 179.569C549.499 180.567 549.343 181.564 548.991 182.503C548.638 183.443 548.097 184.307 547.397 185.045C546.696 185.783 545.851 186.382 544.91 186.806C543.969 187.231 542.95 187.473 541.911 187.519L541.93 187.513Z" fill="#6C63FF"/>
                <path d="M561.15 175.234C559.923 175.294 558.698 175.078 557.572 174.605C556.446 174.132 555.45 173.413 554.663 172.506C553.877 171.599 553.321 170.529 553.039 169.38C552.758 168.231 552.759 167.035 553.043 165.887C553.326 164.738 553.884 163.669 554.672 162.763C555.461 161.858 556.458 161.141 557.584 160.669C558.711 160.198 559.937 159.985 561.164 160.047C562.392 160.109 563.587 160.444 564.656 161.027L563.254 164.733L566.136 162.077C566.903 162.746 567.526 163.555 567.968 164.456C568.409 165.357 568.661 166.333 568.709 167.327C568.747 168.031 568.68 168.736 568.509 169.421C568.106 171.026 567.17 172.461 565.842 173.509C564.515 174.558 562.868 175.163 561.15 175.234Z" fill="#6C63FF"/>
                <path opacity="0.1" d="M558.899 152.837C557.072 153.034 555.291 153.578 553.457 153.689C551.624 153.8 549.598 153.374 548.446 152.003C547.908 151.208 547.421 150.383 546.986 149.532C546.484 148.784 545.8 148.165 544.992 147.729C544.479 148.692 544.186 149.75 544.133 150.832C544.08 151.913 544.268 152.993 544.684 153.999C545.101 155.005 545.736 155.914 546.548 156.665C547.36 157.416 548.329 157.992 549.392 158.355C550.454 158.717 551.585 158.858 552.708 158.767C553.832 158.675 554.922 158.355 555.906 157.827C556.89 157.299 557.746 156.575 558.415 155.703C559.084 154.832 559.552 153.834 559.787 152.775C559.491 152.787 559.195 152.806 558.899 152.837Z" fill="black"/>
                <path opacity="0.1" d="M561.15 175.233C559.786 175.293 558.428 175.014 557.209 174.422C555.99 173.83 554.951 172.945 554.193 171.853C553.435 170.762 552.984 169.501 552.883 168.193C552.782 166.885 553.036 165.574 553.618 164.387C554.247 164.792 554.789 165.31 555.213 165.913C555.683 166.78 556.208 167.62 556.783 168.427C558.011 169.822 560.121 170.279 562.032 170.193C563.942 170.107 565.788 169.575 567.692 169.421C567.956 169.421 568.226 169.378 568.49 169.372C568.097 170.982 567.168 172.426 565.843 173.484C564.519 174.542 562.871 175.156 561.15 175.233Z" fill="black"/>
                <path opacity="0.1" d="M541.93 187.513C540.577 187.576 539.229 187.305 538.016 186.725C536.803 186.145 535.765 185.275 535.003 184.199C534.24 183.124 533.778 181.878 533.661 180.582C533.544 179.285 533.775 177.982 534.333 176.796C534.982 177.211 535.549 177.734 536.006 178.34C536.649 179.174 537.003 180.138 537.723 180.904C539.061 182.337 541.306 182.837 543.332 182.794C545.359 182.75 547.192 182.287 549.122 182.145C548.644 183.642 547.697 184.961 546.41 185.921C545.123 186.882 543.558 187.438 541.93 187.513Z" fill="black"/>
                <path opacity="0.1" d="M545.841 202.281C544.897 203.978 543.318 205.268 541.423 205.892C539.528 206.516 537.458 206.428 535.628 205.645C533.798 204.862 532.344 203.443 531.56 201.673C530.776 199.903 530.719 197.913 531.4 196.104C532.054 196.514 532.639 197.016 533.137 197.593C533.896 198.476 534.391 199.446 535.26 200.298C536.881 201.824 539.492 202.448 541.821 202.51C543.164 202.508 544.507 202.432 545.841 202.281Z" fill="black"/>
                <path d="M640.283 310.83C641.962 307.847 640.058 304.184 637.864 301.522C635.671 298.86 633.008 296.093 633.066 292.695C633.143 287.822 638.533 284.944 642.843 282.356C646.038 280.433 648.983 278.152 651.617 275.561C652.723 274.569 653.638 273.395 654.318 272.096C655.206 270.188 655.18 268.02 655.129 265.92C654.944 258.96 654.586 252.01 654.055 245.067" stroke="#3F3D56" stroke-width="4" stroke-miterlimit="10"/>
                <path d="M662.237 244.696C662.176 243.424 661.782 242.186 661.091 241.098C660.401 240.01 659.437 239.106 658.287 238.47L656.512 241.837L656.563 237.76C655.729 237.521 654.86 237.419 653.99 237.457C652.426 237.527 650.918 238.041 649.658 238.934C648.398 239.827 647.441 241.059 646.91 242.474C646.379 243.888 646.297 245.423 646.674 246.882C647.051 248.342 647.87 249.662 649.028 250.674C650.186 251.687 651.63 252.347 653.179 252.571C654.728 252.795 656.311 252.573 657.728 251.933C659.146 251.294 660.334 250.264 661.142 248.976C661.95 247.688 662.342 246.199 662.269 244.696H662.237Z" fill="#6C63FF"/>
                <path d="M648.117 296.167C647.287 297.718 645.926 298.948 644.264 299.65C642.601 300.352 640.737 300.484 638.985 300.024C637.233 299.563 635.699 298.538 634.641 297.121C633.582 295.704 633.063 293.98 633.171 292.239C633.279 290.497 634.007 288.845 635.233 287.558C636.459 286.271 638.109 285.428 639.905 285.17C641.702 284.912 643.536 285.255 645.1 286.142C646.664 287.028 647.864 288.405 648.497 290.039L643.55 293.906L648.992 292.671C648.998 293.887 648.698 295.086 648.117 296.167Z" fill="#6C63FF"/>
                <path d="M644.207 281.398C642.263 281.488 640.352 280.887 638.84 279.711C637.328 278.534 636.321 276.864 636.01 275.019C635.699 273.174 636.106 271.284 637.154 269.709C638.202 268.134 639.817 266.985 641.691 266.481L641.653 269.613L643.448 266.21C645.546 266.117 647.596 266.829 649.148 268.187C650.701 269.546 651.628 271.44 651.726 273.455C651.776 274.453 651.619 275.45 651.267 276.389C650.915 277.329 650.373 278.192 649.673 278.931C648.973 279.669 648.128 280.267 647.187 280.692C646.245 281.116 645.226 281.359 644.187 281.405L644.207 281.398Z" fill="#6C63FF"/>
                <path d="M663.427 269.119C662.199 269.179 660.974 268.964 659.848 268.491C658.722 268.017 657.727 267.299 656.94 266.392C656.153 265.485 655.597 264.415 655.316 263.266C655.035 262.117 655.036 260.921 655.319 259.772C655.603 258.624 656.161 257.554 656.949 256.649C657.737 255.743 658.734 255.026 659.861 254.555C660.988 254.083 662.213 253.87 663.441 253.932C664.668 253.994 665.864 254.33 666.933 254.913L665.53 258.619L668.412 255.963C669.18 256.632 669.803 257.44 670.244 258.341C670.686 259.242 670.937 260.218 670.985 261.213C671.024 261.916 670.957 262.622 670.786 263.307C670.382 264.911 669.446 266.346 668.119 267.395C666.791 268.443 665.144 269.049 663.427 269.119Z" fill="#6C63FF"/>
                <path opacity="0.1" d="M661.175 246.722C659.349 246.92 657.567 247.463 655.734 247.575C653.9 247.686 651.874 247.259 650.723 245.888C650.185 245.094 649.697 244.269 649.263 243.418C648.761 242.669 648.076 242.05 647.268 241.614C646.755 242.578 646.462 243.636 646.409 244.717C646.356 245.799 646.544 246.879 646.96 247.885C647.377 248.891 648.012 249.8 648.824 250.551C649.636 251.302 650.606 251.878 651.668 252.24C652.731 252.603 653.861 252.743 654.985 252.652C656.108 252.561 657.198 252.241 658.183 251.712C659.167 251.184 660.022 250.46 660.691 249.589C661.36 248.718 661.828 247.719 662.063 246.66C661.767 246.673 661.471 246.691 661.175 246.722Z" fill="black"/>
                <path opacity="0.1" d="M663.427 269.119C662.062 269.179 660.704 268.9 659.485 268.307C658.266 267.715 657.227 266.831 656.47 265.739C655.712 264.648 655.26 263.387 655.16 262.078C655.059 260.77 655.312 259.459 655.894 258.272C656.524 258.677 657.066 259.195 657.49 259.798C657.96 260.666 658.484 261.505 659.059 262.312C660.288 263.708 662.398 264.165 664.308 264.079C666.219 263.992 668.065 263.461 669.969 263.307C670.232 263.307 670.503 263.263 670.766 263.257C670.374 264.868 669.444 266.312 668.12 267.37C666.795 268.427 665.148 269.042 663.427 269.119Z" fill="black"/>
                <path opacity="0.1" d="M644.207 281.398C642.853 281.462 641.505 281.19 640.292 280.61C639.08 280.03 638.042 279.161 637.28 278.085C636.517 277.009 636.055 275.764 635.938 274.467C635.821 273.171 636.052 271.867 636.61 270.682C637.259 271.096 637.825 271.619 638.282 272.226C638.926 273.06 639.279 274.023 640 274.789C641.338 276.222 643.583 276.722 645.609 276.679C647.635 276.636 649.469 276.173 651.398 276.031C650.921 277.527 649.974 278.846 648.687 279.807C647.4 280.767 645.835 281.323 644.207 281.398Z" fill="black"/>
                <path opacity="0.1" d="M648.117 296.167C647.173 297.863 645.595 299.153 643.7 299.778C641.805 300.402 639.734 300.314 637.904 299.531C636.074 298.748 634.621 297.329 633.836 295.559C633.052 293.789 632.995 291.799 633.677 289.99C634.33 290.399 634.916 290.901 635.413 291.479C636.172 292.362 636.7 293.332 637.536 294.184C639.157 295.71 641.769 296.333 644.097 296.395C645.441 296.394 646.783 296.318 648.117 296.167Z" fill="black"/>
             </svg>