<svg width="170" height="44" viewBox="0 0 170 44" fill="none" xmlns="http://www.w3.org/2000/svg">
<path d="M41.316 21.7681C40.9987 21.7681 40.7467 21.6468 40.56 21.4041C40.392 21.1428 40.308 20.7975 40.308 20.3681C40.308 19.4161 40.7 18.9401 41.484 18.9401H44.452C45.1427 18.9401 45.628 18.7441 45.908 18.3521C46.2067 17.9601 46.356 17.5308 46.356 17.0641V12.4721C46.356 12.0055 46.2067 11.5761 45.908 11.1841C45.628 10.7921 45.1427 10.5961 44.452 10.5961H38.572V28.8801C38.572 29.7761 38.012 30.2241 36.892 30.2241C35.8093 30.2241 35.268 29.7761 35.268 28.8801V9.44812C35.268 8.77612 35.436 8.32812 35.772 8.10412C36.108 7.88012 36.5187 7.76812 37.004 7.76812H45.18C45.6467 7.76812 46.1413 7.87079 46.664 8.07612C47.1867 8.28145 47.6907 8.54279 48.176 8.86012H48.148C48.6333 9.21479 49.0067 9.68145 49.268 10.2601C49.5293 10.8201 49.66 11.4735 49.66 12.2201V17.2881C49.66 18.8001 49.156 19.9295 48.148 20.6761C47.6627 21.0308 47.168 21.3015 46.664 21.4881C46.16 21.6748 45.6653 21.7681 45.18 21.7681H41.316ZM58.2278 28.8241C58.2278 29.7201 57.7144 30.1681 56.6878 30.1681C55.6424 30.1681 55.1198 29.7201 55.1198 28.8241V14.3761C55.1198 13.4801 55.6424 13.0321 56.6878 13.0321C57.7144 13.0321 58.2278 13.4801 58.2278 14.3761V28.8241ZM58.8158 9.50412C58.8158 10.1015 58.6104 10.6055 58.1998 11.0161C57.7891 11.4268 57.2851 11.6321 56.6878 11.6321C56.0904 11.6321 55.5771 11.4268 55.1478 11.0161C54.7371 10.6055 54.5318 10.1015 54.5318 9.50412C54.5318 8.88812 54.7371 8.37479 55.1478 7.96412C55.5771 7.55345 56.0904 7.34812 56.6878 7.34812C57.2851 7.34812 57.7891 7.55345 58.1998 7.96412C58.6104 8.37479 58.8158 8.88812 58.8158 9.50412ZM66.5985 28.8241C66.5985 29.7201 66.0851 30.1681 65.0585 30.1681C64.0318 30.1681 63.5185 29.7201 63.5185 28.8241V17.5681C63.5185 16.8028 63.6398 16.1401 63.8825 15.5801C64.1251 15.0201 64.5078 14.5628 65.0305 14.2081C66.0198 13.4988 67.0091 13.1441 67.9985 13.1441H72.5065C73.4585 13.1441 74.4478 13.4988 75.4745 14.2081C76.4825 14.9175 76.9865 16.0375 76.9865 17.5681V28.8241C76.9865 29.7201 76.4731 30.1681 75.4465 30.1681C74.4198 30.1681 73.9065 29.7201 73.9065 28.8241V17.8201C73.9065 17.3348 73.7571 16.8681 73.4585 16.4201L73.4865 16.4481C73.2438 16.0001 72.7491 15.7761 72.0025 15.7761H68.5025C67.7371 15.7761 67.2331 16.0001 66.9905 16.4481C66.7291 16.8401 66.5985 17.2975 66.5985 17.8201V28.8241ZM85.0883 25.5201C85.0883 25.9681 85.2283 26.3881 85.5083 26.7801C85.807 27.1721 86.3016 27.3681 86.9923 27.3681H90.4923C91.183 27.3681 91.6683 27.2001 91.9483 26.8641C92.247 26.5095 92.3963 26.1081 92.3963 25.6601V25.3521C92.3963 24.4748 92.9096 24.0361 93.9363 24.0361C94.963 24.0361 95.4763 24.4748 95.4763 25.3521V25.6881C95.4763 26.4721 95.3456 27.1161 95.0843 27.6201C94.8416 28.1241 94.4683 28.5628 93.9643 28.9361C92.975 29.6455 91.9856 30.0001 90.9963 30.0001H86.2923C85.303 30.0001 84.3416 29.6455 83.4083 28.9361C82.9603 28.5628 82.615 28.0961 82.3723 27.5361C82.1296 26.9575 82.0083 26.2948 82.0083 25.5481V17.5681C82.0083 16.0561 82.475 14.9361 83.4083 14.2081C83.875 13.8721 84.351 13.6108 84.8363 13.4241C85.3403 13.2188 85.8256 13.1161 86.2923 13.1161H90.9963C91.4443 13.1161 91.939 13.2095 92.4803 13.3961C93.0216 13.5641 93.5256 13.7975 93.9923 14.0961C94.4403 14.4135 94.795 14.8521 95.0563 15.4121C95.3363 15.9721 95.4763 16.6348 95.4763 17.4001V21.1801C95.4763 21.6095 95.3456 21.9921 95.0843 22.3281C94.8416 22.6641 94.3843 22.8321 93.7123 22.8321H87.6643C86.9923 22.8321 86.6376 22.3935 86.6003 21.5161C86.6003 20.6388 86.955 20.2001 87.6643 20.2001H92.4243L92.3963 17.5961C92.3963 17.1295 92.247 16.7095 91.9483 16.3361C91.6683 15.9441 91.183 15.7481 90.4923 15.7481H86.9923C86.3016 15.7481 85.807 15.9441 85.5083 16.3361C85.2283 16.7095 85.0883 17.1295 85.0883 17.5961V25.5201ZM113.911 25.5481C113.911 27.0788 113.407 28.2081 112.399 28.9361C111.41 29.6455 110.421 30.0001 109.431 30.0001H104.727C103.738 30.0001 102.777 29.6455 101.843 28.9361C101.395 28.5628 101.05 28.0961 100.807 27.5361C100.565 26.9575 100.443 26.2948 100.443 25.5481V17.5681C100.443 16.0561 100.91 14.9361 101.843 14.2081C102.31 13.8721 102.786 13.6108 103.271 13.4241C103.775 13.2188 104.261 13.1161 104.727 13.1161H109.431C109.879 13.1161 110.374 13.2095 110.915 13.3961C111.457 13.5641 111.961 13.7975 112.427 14.0961C112.875 14.4135 113.23 14.8521 113.491 15.4121C113.771 15.9721 113.911 16.6348 113.911 17.4001V18.8001C113.911 19.6961 113.398 20.1441 112.371 20.1441C111.345 20.1441 110.831 19.6961 110.831 18.8001V17.5961C110.831 17.1295 110.682 16.7095 110.383 16.3361C110.103 15.9441 109.618 15.7481 108.927 15.7481H105.427C104.737 15.7481 104.242 15.9441 103.943 16.3361C103.663 16.7095 103.523 17.1295 103.523 17.5961V25.5201C103.523 25.9681 103.663 26.3881 103.943 26.7801C104.242 27.1721 104.737 27.3681 105.427 27.3681H108.927C109.618 27.3681 110.103 27.1721 110.383 26.7801C110.682 26.3881 110.831 25.9681 110.831 25.5201V24.2321C110.831 23.3548 111.345 22.9161 112.371 22.9161C113.398 22.9161 113.911 23.3548 113.911 24.2321V25.5481ZM121.904 28.8241C121.904 29.7201 121.391 30.1681 120.364 30.1681C119.337 30.1681 118.824 29.7201 118.824 28.8241V8.94412C118.824 8.04812 119.337 7.60012 120.364 7.60012C121.391 7.60012 121.904 8.04812 121.904 8.94412V13.1441H127.812C128.764 13.1441 129.753 13.4988 130.78 14.2081C131.788 14.9175 132.292 16.0375 132.292 17.5681V28.8241C132.292 29.7201 131.779 30.1681 130.752 30.1681C129.725 30.1681 129.212 29.7201 129.212 28.8241V17.8201C129.212 17.3348 129.063 16.8681 128.764 16.4201L128.792 16.4481C128.549 16.0001 128.055 15.7761 127.308 15.7761H121.904V28.8241ZM140.476 25.5201C140.476 25.9681 140.616 26.3881 140.896 26.7801C141.194 27.1721 141.689 27.3681 142.38 27.3681H145.88C146.57 27.3681 147.056 27.2001 147.336 26.8641C147.634 26.5095 147.784 26.1081 147.784 25.6601V25.3521C147.784 24.4748 148.297 24.0361 149.324 24.0361C150.35 24.0361 150.864 24.4748 150.864 25.3521V25.6881C150.864 26.4721 150.733 27.1161 150.472 27.6201C150.229 28.1241 149.856 28.5628 149.352 28.9361C148.362 29.6455 147.373 30.0001 146.384 30.0001H141.68C140.69 30.0001 139.729 29.6455 138.796 28.9361C138.348 28.5628 138.002 28.0961 137.76 27.5361C137.517 26.9575 137.396 26.2948 137.396 25.5481V17.5681C137.396 16.0561 137.862 14.9361 138.796 14.2081C139.262 13.8721 139.738 13.6108 140.224 13.4241C140.728 13.2188 141.213 13.1161 141.68 13.1161H146.384C146.832 13.1161 147.326 13.2095 147.868 13.3961C148.409 13.5641 148.913 13.7975 149.38 14.0961C149.828 14.4135 150.182 14.8521 150.444 15.4121C150.724 15.9721 150.864 16.6348 150.864 17.4001V21.1801C150.864 21.6095 150.733 21.9921 150.472 22.3281C150.229 22.6641 149.772 22.8321 149.1 22.8321H143.052C142.38 22.8321 142.025 22.3935 141.988 21.5161C141.988 20.6388 142.342 20.2001 143.052 20.2001H147.812L147.784 17.5961C147.784 17.1295 147.634 16.7095 147.336 16.3361C147.056 15.9441 146.57 15.7481 145.88 15.7481H142.38C141.689 15.7481 141.194 15.9441 140.896 16.3361C140.616 16.7095 140.476 17.1295 140.476 17.5961V25.5201ZM159.499 15.7761V25.9681C159.499 26.4535 159.602 26.8268 159.807 27.0881C160.012 27.3495 160.451 27.4801 161.123 27.4801H161.851C162.579 27.4801 162.924 27.9095 162.887 28.7681C162.887 29.6455 162.542 30.0841 161.851 30.0841H160.927C160.33 30.0841 159.77 30.0095 159.247 29.8601C158.724 29.6921 158.22 29.4588 157.735 29.1601V29.1881C156.82 28.5908 156.363 27.5268 156.363 25.9961V15.7761H155.271C154.599 15.7761 154.244 15.3375 154.207 14.4601C154.207 13.5828 154.562 13.1441 155.271 13.1441H156.363V10.1481C156.363 9.25212 156.895 8.80412 157.959 8.80412C158.986 8.80412 159.499 9.25212 159.499 10.1481V13.1441H161.823C162.551 13.1441 162.896 13.5828 162.859 14.4601C162.859 15.3375 162.514 15.7761 161.823 15.7761H159.499Z" fill="white"/>
<path d="M98.031 33.3989C138.988 42.8903 143.389 38.0417 169.558 32.2358C150.294 49.7468 112.562 42.5242 98.031 33.3989Z" fill="#37A5E3"/>
<path fill-rule="evenodd" clip-rule="evenodd" d="M14.0214 18.8489C13.3608 17.135 12.6428 15.1893 11.8659 13.0051C9.21766 12.4394 6.15019 11.8352 2.66425 11.1932C4.47274 9.02829 6.98936 7.54638 9.78532 7C10.5208 9.17234 11.214 11.1727 11.8659 13.0051C14.7191 13.6147 17.0856 14.1795 18.9644 14.6985C18.6939 12.7238 18.3711 10.5538 17.9977 8.19679C20.5118 9.51701 22.4822 11.6528 23.5732 14.2403C24.6641 16.8277 24.8081 19.7068 23.9805 22.3868C23.153 25.0669 21.4052 27.3822 19.0349 28.9381C16.6646 30.4941 13.8185 31.1945 10.9815 30.92C8.14444 30.6454 5.49208 29.413 3.47631 27.4326L14.0214 18.8489ZM19.4548 18.5534C19.3173 17.3659 19.1536 16.08 18.9644 14.6985C26.0159 16.6465 26.1971 17.9498 19.4548 18.5534ZM14.0214 18.8489C16.1657 18.7844 17.9766 18.6857 19.4548 18.5534C20.9439 31.4119 19.3675 32.7207 14.0214 18.8489Z" fill="#37A5E3"/>
<path fill-rule="evenodd" clip-rule="evenodd" d="M10.4897 18.8489C11.1503 17.135 11.8683 15.1893 12.6453 13.0051C15.2935 12.4394 18.3609 11.8352 21.8469 11.1932C20.0384 9.02829 17.5217 7.54638 14.7258 7C13.9903 9.17234 13.2971 11.1727 12.6453 13.0051C9.79205 13.6147 7.42554 14.1795 5.54675 14.6985C5.81724 12.7238 6.13999 10.5538 6.5134 8.19679C3.99928 9.51701 2.02888 11.6528 0.937952 14.2403C-0.152978 16.8277 -0.296945 19.7068 0.53058 22.3868C1.3581 25.0669 3.10592 27.3822 5.47622 28.9381C7.84652 30.4941 10.6926 31.1945 13.5297 30.92C16.3667 30.6454 19.019 29.413 21.0348 27.4326L10.4897 18.8489ZM5.05634 18.5534C5.19386 17.3659 5.35751 16.08 5.54675 14.6985C-1.50475 16.6465 -1.68599 17.9498 5.05634 18.5534ZM10.4897 18.8489C8.34546 18.7844 6.53451 18.6857 5.05634 18.5534C3.56722 31.4119 5.14364 32.7207 10.4897 18.8489Z" fill="#37A5E3"/>
</svg>
