<svg viewBox="0 0 318 307" fill="none" xmlns="http://www.w3.org/2000/svg">
<path fill-rule="evenodd" clip-rule="evenodd" d="M183.042 151.704C174.578 129.761 165.376 104.85 155.42 76.8855C121.483 69.6424 82.1745 61.906 37.5029 53.6869C60.6783 25.9687 92.9283 6.99545 128.758 0C138.183 27.813 147.067 53.4242 155.42 76.8855C191.983 84.6893 222.309 91.9205 246.385 98.5657C242.919 73.2838 238.783 45.5005 233.998 15.3228C266.216 32.2259 291.466 59.5712 305.446 92.6992C319.426 125.827 321.271 162.688 310.667 197.002C300.062 231.315 277.664 260.958 247.289 280.879C216.914 300.801 180.442 309.768 144.086 306.253C107.73 302.739 73.741 286.96 47.9092 261.605L183.042 151.704ZM252.67 147.921C250.908 132.718 248.811 116.254 246.385 98.5657C336.749 123.507 339.072 140.193 252.67 147.921ZM183.042 151.704C210.521 150.878 233.728 149.615 252.67 147.921C271.753 312.552 251.551 329.309 183.042 151.704Z" fill="#0F2121"/>
<path fill-rule="evenodd" clip-rule="evenodd" d="M134.424 151.704C142.888 129.761 152.09 104.85 162.046 76.8855C195.982 69.6424 235.291 61.906 279.963 53.6869C256.788 25.9687 224.538 6.99545 188.708 0C179.283 27.813 170.399 53.4242 162.046 76.8855C125.483 84.6893 95.1568 91.9205 71.0805 98.5657C74.5467 73.2838 78.6828 45.5005 83.4679 15.3228C51.2499 32.2259 25.9997 59.5712 12.0197 92.6992C-1.96038 125.827 -3.80529 162.688 6.79927 197.002C17.4038 231.315 39.8018 260.958 70.1767 280.879C100.552 300.801 137.024 309.768 173.38 306.253C209.736 302.739 243.725 286.96 269.557 261.605L134.424 151.704ZM64.796 147.921C66.5582 132.718 68.6554 116.254 71.0805 98.5657C-19.2831 123.507 -21.6056 140.193 64.796 147.921ZM134.424 151.704C106.945 150.878 83.7384 149.615 64.796 147.921C45.7132 312.552 65.9147 329.309 134.424 151.704Z" fill="#0F2121"/>
</svg>
